<?xml version="1.0" encoding="UTF-8"?>
<svg version="1.1" xmlns="http://www.w3.org/2000/svg" width="740" height="390">
<path d="M0 0 C244.2 0 488.4 0 740 0 C740 128.7 740 257.4 740 390 C495.8 390 251.6 390 0 390 C0 261.3 0 132.6 0 0 Z " fill="#F00921" transform="translate(0,0)"/>
<path d="M0 0 C107.58 0 215.16 0 326 0 C326 51.81 326 103.62 326 157 C81.8 157 -162.4 157 -414 157 C-414 105.52 -414 54.04 -414 1 C-306.75 1 -199.5 1 -89 1 C-89 52.15 -89 103.3 -89 156 C-59.63 156 -30.26 156 0 156 C0 104.52 0 53.04 0 0 Z " fill="#FDFBFB" transform="translate(414,233)"/>
<path d="M0 0 C107.58 0 215.16 0 326 0 C326 51.48 326 102.96 326 156 C218.42 156 110.84 156 0 156 C0 104.52 0 53.04 0 0 Z " fill="#FDFBFC" transform="translate(414,0)"/>
<path d="M0 0 C107.25 0 214.5 0 325 0 C325 51.48 325 102.96 325 156 C217.75 156 110.5 156 0 156 C0 104.52 0 53.04 0 0 Z " fill="#FDFBFC" transform="translate(0,0)"/>
<path d="M0 0 C0 36.3 0 72.6 0 110 C-68.64 110 -137.28 110 -208 110 C-202.37589005 105.50071204 -202.37589005 105.50071204 -199.47338867 104.03637695 C-198.82468307 103.70535477 -198.17597748 103.37433258 -197.50761414 103.03327942 C-196.47323967 102.51600533 -196.47323967 102.51600533 -195.41796875 101.98828125 C-194.68612869 101.61575729 -193.95428864 101.24323334 -193.20027161 100.85942078 C-190.86540324 99.67165477 -188.52681853 98.49147396 -186.1875 97.3125 C-183.13709673 95.77128108 -180.08878496 94.22604625 -177.04296875 92.67578125 C-175.91467148 92.10156433 -175.91467148 92.10156433 -174.76358032 91.51574707 C-168.89110461 88.50520854 -163.12396595 85.33016327 -157.40092468 82.04499817 C-153.24998818 79.66715308 -149.04539919 77.48219433 -144.75 75.375 C-137.30439896 71.70916174 -129.99306298 67.81170018 -122.6875 63.875 C-113.14336968 58.73421622 -103.56847099 53.66443663 -93.9375 48.6875 C-92.80715332 48.10331299 -91.67680664 47.51912598 -90.51220703 46.91723633 C-88.33337363 45.79142592 -86.15450154 44.66569037 -83.97558594 43.54003906 C-71.44688881 37.05570845 -59.0097982 30.40253106 -46.58343506 23.72473145 C-36.79407757 18.4662421 -26.95930681 13.30273245 -17.08154297 8.21166992 C-12.98085606 6.09397817 -8.90542947 3.97533829 -4.92578125 1.63671875 C-2 0 -2 0 0 0 Z " fill="#021E7F" transform="translate(296,280)"/>
<path d="M0 0 C68.64 0 137.28 0 208 0 C208 36.3 208 72.6 208 110 C203.59775655 108.53258552 200.22541053 107.18988076 196.23828125 105.015625 C195.13307129 104.4172583 194.02786133 103.8188916 192.88916016 103.20239258 C192.30708801 102.88460846 191.72501587 102.56682434 191.12530518 102.2394104 C187.99933448 100.53328778 184.86477179 98.84309649 181.73046875 97.15234375 C181.08730713 96.80503708 180.44414551 96.45773041 179.78149414 96.09989929 C173.26995998 92.5914012 166.70179289 89.19707617 160.125 85.8125 C152.10976001 81.68164375 144.14602843 77.47937331 136.25 73.125 C126.74830679 67.88588914 117.12287072 62.90949639 107.46929932 57.95852661 C99.2945754 53.76365765 91.16703941 49.5084054 83.125 45.0625 C74.00874386 40.02420271 64.77007677 35.24669149 55.5 30.5 C44.19953776 24.71301434 32.98679997 18.80133793 21.8671875 12.671875 C14.63036262 8.68334817 7.31534549 4.84201169 0 1 C0 0.67 0 0.34 0 0 Z " fill="#001E7F" transform="translate(88,0)"/>
<path d="M0 0 C3.96297096 1.32099032 6.82340442 2.29417717 10.30859375 4.2578125 C11.12199219 4.71027344 11.93539063 5.16273438 12.7734375 5.62890625 C14.09214844 6.36947266 14.09214844 6.36947266 15.4375 7.125 C24.70547554 12.25978809 34.07136989 17.16988921 43.5 22 C53.31485602 27.03229801 63.05785266 32.16117884 72.71484375 37.4921875 C80.86199086 41.97010095 89.1208045 46.22217736 97.38885498 50.47055054 C105.23349476 54.50378469 113.02871944 58.60890435 120.75 62.875 C129.90874047 67.93239829 139.18861453 72.73210926 148.5 77.5 C158.85242788 82.80129409 169.14430904 88.18143643 179.33056641 93.79785156 C188.80661625 99.01834332 198.39782586 104.01625481 208 109 C208 109.33 208 109.66 208 110 C139.36 110 70.72 110 0 110 C0 73.7 0 37.4 0 0 Z " fill="#001E7F" transform="translate(444,280)"/>
<path d="M0 0 C68.64 0 137.28 0 208 0 C204.80875233 2.39343575 201.92190477 4.21875079 198.43359375 6.08203125 C197.32193848 6.67717529 196.2102832 7.27231934 195.06494141 7.88549805 C193.85587586 8.52798559 192.6467265 9.17031543 191.4375 9.8125 C190.1814152 10.48271134 188.92539405 11.153042 187.66943359 11.82348633 C178.06064806 16.94361462 168.39699649 21.95415519 158.71948242 26.94311523 C151.84419132 30.49667586 145.02707495 34.13790738 138.25 37.875 C129.34886615 42.78038454 120.35019193 47.47798235 111.3125 52.125 C110.30254471 52.6443663 110.30254471 52.6443663 109.27218628 53.17422485 C106.62888791 54.53327488 103.98545652 55.89206567 101.34181213 57.2504425 C88.00247735 64.10776868 74.78321803 71.18495701 61.57025146 78.28186035 C51.03504386 83.9379221 40.44389985 89.48054722 29.82421875 94.9765625 C26.00506782 96.95423528 22.19520596 98.94798507 18.39453125 100.9609375 C17.52256104 101.42266357 16.65059082 101.88438965 15.75219727 102.36010742 C14.14087136 103.21490096 12.53059629 104.07167983 10.92163086 104.9309082 C9.85440796 105.49684692 9.85440796 105.49684692 8.765625 106.07421875 C8.15493164 106.39994873 7.54423828 106.72567871 6.91503906 107.0612793 C4.66616235 108.16364173 2.32539381 109.06984248 0 110 C0 73.7 0 37.4 0 0 Z " fill="#011E7F" transform="translate(444,0)"/>
<path d="M0 0 C2.322168 0.05030201 4.64444275 0.09590409 6.96679688 0.13671875 C12.58441175 0.24547567 18.19793596 0.4115884 23.8125 0.625 C23.8125 2.275 23.8125 3.925 23.8125 5.625 C7.99872783 14.45774781 -8.07372132 22.74884546 -24.19761658 30.99545288 C-24.97931717 31.39527374 -25.76101776 31.7950946 -26.56640625 32.20703125 C-27.71811058 32.79600693 -27.71811058 32.79600693 -28.89308167 33.3968811 C-34.385279 36.20797896 -39.8600582 39.04992943 -45.3125 41.9375 C-52.5844927 45.78831451 -59.88114946 49.58975117 -67.1875 53.375 C-68.32719238 53.96547119 -69.46688477 54.55594238 -70.64111328 55.16430664 C-75.33589715 57.59592174 -80.03124247 60.02645167 -84.7265625 62.45703125 C-96.56721188 68.58738963 -108.40561202 74.72053945 -120.19824219 80.94287109 C-126.26922037 84.14547528 -132.35142495 87.32618604 -138.4375 90.5 C-139.39986572 91.00217041 -140.36223145 91.50434082 -141.35375977 92.02172852 C-146.25212568 94.57677688 -151.15314151 97.12655049 -156.05859375 99.66796875 C-166.14223987 104.89927692 -176.15558639 110.22656043 -186.08666992 115.7421875 C-193.67428171 119.93693975 -201.40016669 123.81722305 -209.1875 127.625 C-209.79595764 127.98246307 -210.40441528 128.33992615 -211.03131104 128.70822144 C-213.76801976 129.87182812 -215.90235656 129.86519975 -218.87402344 129.85205078 C-220.01490417 129.85189972 -221.15578491 129.85174866 -222.33123779 129.85159302 C-223.55739807 129.84127045 -224.78355835 129.83094788 -226.046875 129.8203125 C-227.30638977 129.8174826 -228.56590454 129.81465271 -229.86358643 129.81173706 C-233.20423902 129.80244121 -236.54461669 129.78448583 -239.88519287 129.7623291 C-243.29713572 129.74183208 -246.70910702 129.73272712 -250.12109375 129.72265625 C-256.80997168 129.70059907 -263.49871997 129.66712367 -270.1875 129.625 C-266.05450943 126.02253401 -261.69658109 123.6515574 -256.8359375 121.2109375 C-256.02242828 120.79639313 -255.20891907 120.38184875 -254.37075806 119.95474243 C-251.77071864 118.63107303 -249.16682157 117.31522109 -246.5625 116 C-243.17337625 114.28081351 -239.78579064 112.5586096 -236.3984375 110.8359375 C-235.55161407 110.40574814 -234.70479065 109.97555878 -233.83230591 109.53233337 C-224.9024724 104.98766416 -216.04034803 100.31744461 -207.1875 95.625 C-205.76318564 94.87076437 -204.33886928 94.1165325 -202.91455078 93.36230469 C-200.17508738 91.91100299 -197.43612111 90.45876821 -194.69750977 89.00585938 C-181.07274031 81.7779081 -167.42283945 74.60315192 -153.73046875 67.50390625 C-147.90235228 64.48106587 -142.09238123 61.42451519 -136.28540039 58.36132812 C-130.09540922 55.09795793 -123.89295146 51.85886289 -117.6875 48.625 C-110.67978137 44.9728537 -103.67780709 41.31036598 -96.6875 37.625 C-89.69719262 33.93963386 -82.69518863 30.27720425 -75.6875 26.625 C-68.59740118 22.92944766 -61.51162187 19.22605417 -54.4375 15.5 C-53.41898705 14.97750671 -53.41898705 14.97750671 -52.37989807 14.44445801 C-48.49269352 12.43301446 -44.72027641 10.36817855 -41.04858398 7.98339844 C-27.55527979 -0.46151482 -15.57616909 -0.59421073 0 0 Z " fill="#F00C22" transform="translate(272.1875,259.375)"/>
<path d="M0 0 C2.5975304 0.06036994 5.19519845 0.11509109 7.79296875 0.1640625 C14.07338534 0.2944985 20.34852055 0.49376183 26.625 0.75 C23.79828751 2.90943577 21.03613069 4.68563175 17.87109375 6.31640625 C16.94433838 6.79650146 16.01758301 7.27659668 15.06274414 7.77124023 C14.07266357 8.27985596 13.08258301 8.78847168 12.0625 9.3125 C9.96601648 10.39818775 7.86966403 11.48412864 5.7734375 12.5703125 C4.73026367 13.10946289 3.68708984 13.64861328 2.61230469 14.20410156 C-1.53671744 16.35117644 -5.677302 18.51393347 -9.8125 20.6875 C-10.56958252 21.08541748 -11.32666504 21.48333496 -12.10668945 21.89331055 C-18.47441765 25.2520466 -24.80055682 28.68562167 -31.125 32.125 C-41.91168874 37.98984179 -52.77813354 43.69043268 -63.67480469 49.34765625 C-74.88425192 55.16927152 -86.04462543 61.02752054 -96.98046875 67.3515625 C-100.88285372 69.53858645 -104.88442044 71.52005202 -108.890625 73.5078125 C-116.31081546 77.19012019 -123.6394403 81.02422281 -130.94268799 84.93252563 C-134.41648139 86.79144035 -137.89377582 88.64378264 -141.37109375 90.49609375 C-142.05957397 90.86296799 -142.7480542 91.22984222 -143.45739746 91.60783386 C-149.45144485 94.79838585 -155.47179621 97.93699825 -161.5 101.0625 C-168.85486458 104.88236805 -176.16615632 108.77336782 -183.4375 112.75 C-184.23962418 113.17977142 -185.04174835 113.60954285 -185.86817932 114.05233765 C-190.45757617 116.53074943 -194.93385576 119.06848581 -199.29321289 121.93457031 C-214.13640172 131.37985288 -226.4748024 132.26671498 -243.75 131.5 C-246.15481153 131.43961186 -248.55977235 131.38489404 -250.96484375 131.3359375 C-256.77157019 131.20568114 -262.57255149 131.00658504 -268.375 130.75 C-268.375 129.1 -268.375 127.45 -268.375 125.75 C-267.24819824 125.17668945 -266.12139648 124.60337891 -264.96044922 124.01269531 C-238.58161249 110.64475711 -238.58161249 110.64475711 -212.52929688 96.6574707 C-206.03621815 93.06826986 -199.43285532 89.74609747 -192.77709961 86.47045898 C-186.80186598 83.51164062 -180.95074013 80.36733992 -175.125 77.125 C-168.83524885 73.62654785 -162.51759479 70.2545959 -156.06079102 67.07617188 C-149.18244158 63.68094426 -142.37268726 60.15429916 -135.5625 56.625 C-134.94224945 56.30363068 -134.3219989 55.98226135 -133.68295288 55.65115356 C-130.50776857 54.0057324 -127.33307251 52.35937249 -124.15869141 50.71240234 C-120.49632041 48.81245123 -116.83228437 46.91572843 -113.16796875 45.01953125 C-102.54998265 39.52298721 -91.93835293 34.01572255 -81.3659668 28.43188477 C-77.2084098 26.23698464 -73.04430545 24.05563664 -68.87109375 21.890625 C-67.9059082 21.38934082 -66.94072266 20.88805664 -65.94628906 20.37158203 C-64.13802822 19.43316017 -62.32891375 18.49637938 -60.51855469 17.56201172 C-59.65004883 17.11100098 -58.78154297 16.65999023 -57.88671875 16.1953125 C-56.90960937 15.70224609 -55.9325 15.20917969 -54.92578125 14.70117188 C-52.08613802 13.20821484 -49.4490629 11.49525774 -46.77734375 9.72070312 C-31.24932041 -0.20167812 -18.07896026 -0.74076915 0 0 Z " fill="#EF0D23" transform="translate(712.375,-0.75)"/>
<path d="M0 0 C0 27.72 0 55.44 0 84 C-52.8 84 -105.6 84 -160 84 C-156.67338699 81.50504024 -153.71349425 79.71745384 -150.0390625 77.84765625 C-149.46146179 77.55190704 -148.88386108 77.25615784 -148.28875732 76.95144653 C-147.04878557 76.31661589 -145.80803765 75.6832994 -144.56658936 75.05136108 C-141.25316947 73.36381991 -137.94640142 71.66339346 -134.640625 69.9609375 C-133.9785202 69.61997543 -133.31641541 69.27901337 -132.63424683 68.92771912 C-127.16491603 66.10264453 -121.76017906 63.16981017 -116.375 60.1875 C-104.52618527 53.6433137 -92.46648423 47.51424038 -80.42016602 41.34461975 C-79.68467529 40.96792648 -78.94918457 40.59123322 -78.19140625 40.203125 C-77.10508911 39.64684669 -77.10508911 39.64684669 -75.99682617 39.07933044 C-69.11699348 35.55339636 -62.2734852 31.96119039 -55.44140625 28.34375 C-52.14465675 26.59907329 -48.83828584 24.87384057 -45.52734375 23.15625 C-32.96686767 16.63863281 -20.50100308 9.97032766 -8.10864258 3.13818359 C-2.29472329 0 -2.29472329 0 0 0 Z " fill="#011D7F" transform="translate(740,46)"/>
<path d="M0 0 C52.8 0 105.6 0 160 0 C160 27.72 160 55.44 160 84 C155.90845643 82.63615214 152.92866078 81.56710405 149.3046875 79.53125 C148.43457031 79.04785156 147.56445312 78.56445312 146.66796875 78.06640625 C145.74628906 77.54949219 144.82460938 77.03257812 143.875 76.5 C136.65717465 72.50287759 129.4057971 68.63714024 122 65 C115.17589251 61.6392125 108.47035684 58.11637134 101.8125 54.4375 C92.40018254 49.24148247 82.8772904 44.28229901 73.3125 39.375 C72.59132996 39.00486786 71.87015991 38.63473572 71.12713623 38.25338745 C68.298125 36.80152728 65.46904158 35.34980806 62.63973999 33.89851379 C51.68860518 28.27812775 40.82168994 22.50053849 29.953125 16.72265625 C29.23532364 16.34112396 28.51752228 15.95959167 27.77796936 15.5664978 C24.1636817 13.64528328 20.54990913 11.72311435 16.93725586 9.79882812 C15.59750014 9.08592501 14.25773804 8.37303386 12.91796875 7.66015625 C12.00504059 7.17326073 12.00504059 7.17326073 11.07366943 6.67652893 C7.40942269 4.72793627 3.71922067 2.84139793 0 1 C0 0.67 0 0.34 0 0 Z " fill="#011D7F" transform="translate(580,260)"/>
<path d="M0 0 C52.8 0 105.6 0 160 0 C156.4904127 2.63219048 153.04953941 4.63111313 149.1640625 6.58984375 C148.16421326 7.10019165 148.16421326 7.10019165 147.14416504 7.62084961 C145.71569457 8.34992943 144.28645003 9.07749427 142.85650635 9.80368042 C132.5379602 15.04649305 122.2481454 20.32441938 112.125 25.9375 C102.62036365 31.1962696 92.97872266 36.17204171 83.3125 41.125 C82.54231537 41.51968475 81.77213074 41.91436951 80.97860718 42.3210144 C77.96819032 43.86349451 74.95769667 45.40582457 71.94703674 46.9478302 C64.55532679 50.7359263 57.1996804 54.5893174 49.86279297 58.48242188 C46.88807585 60.05933145 43.91149501 61.63267873 40.93458557 63.20544434 C37.88895242 64.81460036 34.84374281 66.42455683 31.7986145 68.03466797 C30.28931516 68.83267034 28.77993856 69.63052661 27.27047729 70.42822266 C25.12784278 71.56078414 22.98569925 72.69426813 20.84375 73.828125 C20.16389542 74.18757202 19.48404083 74.54701904 18.78358459 74.9173584 C13.82604892 77.54465397 8.91069495 80.24238397 4.02148438 82.99511719 C2 84 2 84 0 84 C0 56.28 0 28.56 0 0 Z " fill="#011D7E" transform="translate(0,260)"/>
<path d="M0 0 C3.02766533 1.21106613 5.79996425 2.33993886 8.66259766 3.8125 C9.34235657 4.16083389 10.02211548 4.50916779 10.72247314 4.86805725 C11.80730988 5.42836891 11.80730988 5.42836891 12.9140625 6 C13.67692566 6.39186996 14.43978882 6.78373993 15.22576904 7.18748474 C17.69339278 8.45598064 20.15925712 9.7278524 22.625 11 C24.32498791 11.8751681 26.02502057 12.75024929 27.72509766 13.62524414 C37.38451758 18.60049983 47.02855462 23.60294322 56.62890625 28.69140625 C59.89922868 30.4238219 63.17971728 32.13566665 66.46484375 33.83984375 C75.82233434 38.69526453 85.14243282 43.59808411 94.375 48.6875 C103.7271043 53.83573242 113.19107656 58.75027867 122.6875 63.625 C123.39897186 63.99032837 124.11044373 64.35565674 124.84347534 64.73205566 C127.63687695 66.1662388 130.43045764 67.60007239 133.22425842 69.03347778 C138.97165203 71.9830422 144.71212327 74.94537179 150.4375 77.9375 C151.19957764 78.33211426 151.96165527 78.72672852 152.74682617 79.13330078 C155.48384933 80.56906308 157.80074765 81.80074765 160 84 C107.2 84 54.4 84 0 84 C0 56.28 0 28.56 0 0 Z " fill="#011D7F" transform="translate(0,46)"/>
<path d="M0 0 C62.80077271 -3.10013292 62.80077271 -3.10013292 85.15039062 13.00341797 C89.72118371 16.20594931 94.6308228 18.71719734 99.5625 21.3125 C101.3319442 22.28294413 103.10020576 23.25554819 104.8671875 24.23046875 C110.73875153 27.42879133 116.71275471 30.40599353 122.70483398 33.37036133 C131.55613576 37.7529941 140.27799844 42.36652491 149 47 C154.41569139 49.87683988 159.8322179 52.75209914 165.25 55.625 C165.97641693 56.01026855 166.70283386 56.39553711 167.45126343 56.79248047 C178.08011669 62.42686244 188.74122429 67.9947418 199.4375 73.5 C200.08415619 73.83292053 200.73081238 74.16584106 201.39706421 74.5088501 C202.67399606 75.16624883 203.9509378 75.82362836 205.22789001 76.48098755 C206.14762352 76.95446121 206.14762352 76.95446121 207.0859375 77.4375 C207.68551773 77.74613983 208.28509796 78.05477966 208.90284729 78.37277222 C221.7597256 84.99365031 234.49292093 91.73782505 247 99 C247 108.9 247 118.8 247 129 C231.42664384 121.77396274 216.19915983 113.97979507 201 106 C200.11248047 105.53416504 199.22496094 105.06833008 198.31054688 104.58837891 C194.44456591 102.55758373 190.58104782 100.52216449 186.71875 98.484375 C181.40384849 95.68254661 176.07734083 92.9030858 170.75 90.125 C169.78328369 89.6206543 168.81656738 89.11630859 167.82055664 88.59667969 C162.99610039 86.08054697 158.16968175 83.56828729 153.33984375 81.0625 C143.03373418 75.70934821 132.77626684 70.27754563 122.5625 64.75 C115.22583748 60.78235418 107.88212318 56.86397493 100.39794922 53.18212891 C93.44765256 49.7543649 86.56911975 46.18794656 79.6875 42.625 C79.05049164 42.29525177 78.41348328 41.96550354 77.75717163 41.62576294 C69.59625324 37.39938587 61.45023585 33.14580225 53.32543945 28.8503418 C45.40304735 24.66915077 37.43933163 20.56802876 29.47940063 16.45895386 C19.61971038 11.36804879 9.78830672 6.22704078 0 1 C0 0.67 0 0.34 0 0 Z " fill="#F00C23" transform="translate(493,260)"/>
<path d="M0 0 C19.13474107 9.47073043 38.08219416 19.32068679 56.96020508 29.29248047 C63.4588435 32.72324093 69.97810661 36.11368878 76.5 39.5 C83.80268709 43.29188541 91.09845249 47.09568645 98.375 50.9375 C107.23726384 55.61566366 116.13575694 60.22304103 125.03515625 64.83007812 C131.49429244 68.17589614 137.94359849 71.53869884 144.375 74.9375 C153.02679604 79.50883904 161.71991914 83.99928908 170.41448975 88.48849487 C178.51858591 92.67346083 186.6078621 96.88429685 194.67089844 101.14794922 C202.00682792 105.01960137 209.3790588 108.82061692 216.75 112.625 C226.5392934 117.67761439 236.30878707 122.76105415 246 128 C246 128.33 246 128.66 246 129 C182.76247085 131.89452871 182.76247085 131.89452871 162.57617188 116.85986328 C158.39565095 113.8417427 153.86309245 111.52995623 149.3125 109.125 C147.6964449 108.23182443 146.08180045 107.33609053 144.46875 106.4375 C139.84680375 103.89424848 135.15250225 101.52338046 130.42041016 99.19335938 C115.88443656 92.02060207 101.57825297 84.37292785 87.24291992 76.80908203 C80.67532833 73.34689089 74.08887954 69.92147344 67.5 66.5 C59.35879119 62.27224362 51.22807102 58.02588323 43.11474609 53.74487305 C35.87495341 49.92709213 28.61651687 46.145288 21.35302734 42.37280273 C14.19662308 38.6481583 7.10558985 34.82608684 0 31 C0 20.77 0 10.54 0 0 Z " fill="#EF0D23" transform="translate(0,0)"/>
<path d="M0 0 C0.99 0 1.98 0 3 0 C3 52.8 3 105.6 3 160 C2.34 159.67 1.68 159.34 1 159 C-0.76131754 158.90081985 -2.52640509 158.86611741 -4.29050636 158.8613348 C-5.41962523 158.85586036 -6.5487441 158.85038591 -7.71207869 158.84474558 C-8.96302931 158.84376747 -10.21397992 158.84278936 -11.50283813 158.84178162 C-12.83687628 158.83721844 -14.170913 158.83221878 -15.50494802 158.82681805 C-19.18313453 158.81319968 -22.86131176 158.80580792 -26.53951693 158.79939139 C-30.50135674 158.79140364 -34.46317716 158.7777003 -38.42500305 158.76467896 C-45.29324361 158.74289308 -52.1614861 158.72475633 -59.02974319 158.70907402 C-68.96018044 158.68639458 -78.89059622 158.65824911 -88.82101528 158.62875474 C-104.93112312 158.58105517 -121.04123972 158.53779741 -137.15136719 158.49731445 C-152.8040434 158.45797155 -168.45671181 158.41654823 -184.109375 158.37231445 C-185.07364912 158.36959018 -186.03792325 158.36686591 -187.0314178 158.36405908 C-191.86873165 158.3503798 -196.70604537 158.33665949 -201.54335904 158.32291877 C-241.69555743 158.20891685 -281.84777141 158.10293067 -322 158 C-322 182.09 -322 206.18 -322 231 C-215.41 231 -108.82 231 1 231 C1.33 282.48 1.66 333.96 2 387 C30.38 387 58.76 387 88 387 C88 336.51 88 286.02 88 234 C88.33 234 88.66 234 89 234 C89 285.15 89 336.3 89 389 C59.63 389 30.26 389 0 389 C0 337.85 0 286.7 0 234 C-107.25 234 -214.5 234 -325 234 C-325 208.26 -325 182.52 -325 156 C-217.75 156 -110.5 156 0 156 C0 104.52 0 53.04 0 0 Z " fill="#EF202C" transform="translate(325,0)"/>
<path d="M0 0 C17.91957341 17.91957341 2 50.65789626 2 76 C108.92 76 215.84 76 326 76 C326.33 127.15 326.66 178.3 327 231 C355.38 231 383.76 231 413 231 C413 180.51 413 130.02 413 78 C413.33 78 413.66 78 414 78 C414 129.15 414 180.3 414 233 C384.63 233 355.26 233 325 233 C325 181.85 325 130.7 325 78 C217.75 78 110.5 78 0 78 C0 52.26 0 26.52 0 0 Z " fill="#E44751" transform="translate(0,156)"/>
<path d="M0 0 C0.99 0 1.98 0 3 0 C3 36.3 3 72.6 3 110 C-3.75 107.75 -3.75 107.75 -6 105 C-4.02 105.33 -2.04 105.66 0 106 C0 71.02 0 36.04 0 0 Z " fill="#212F84" transform="translate(293,0)"/>
<path d="M0 0 C1.98 0.66 3.96 1.32 6 2 C5.34 2.66 4.68 3.32 4 4 C3.6868532 5.9718232 3.6868532 5.9718232 3.7215271 8.26467896 C3.71036362 9.15932861 3.69920013 10.05397827 3.68769836 10.97573853 C3.68553818 11.95972626 3.68337799 12.94371399 3.68115234 13.95751953 C3.67110672 14.99169006 3.6610611 16.0258606 3.65071106 17.09136963 C3.61973221 20.52184474 3.60280311 23.95224131 3.5859375 27.3828125 C3.56723768 29.75650719 3.54766518 32.13019516 3.5272522 34.50387573 C3.47579972 40.76084435 3.4362443 47.01783455 3.39910889 53.27490234 C3.35915129 59.65597937 3.30802145 66.03696561 3.2578125 72.41796875 C3.16089799 84.94524769 3.07616391 97.47257861 3 110 C2.01 110 1.02 110 0 110 C0 73.7 0 37.4 0 0 Z " fill="#1E2C80" transform="translate(444,280)"/>
<path d="M0 0 C1.32 0.33 2.64 0.66 4 1 C-10.71617259 11.70425565 -24.92686498 11.08548402 -42.5625 10.5625 C-45.23105126 10.51206263 -47.89955594 10.476218 -50.56835938 10.43945312 C-57.04722133 10.34120643 -63.52325453 10.19138173 -70 10 C-66.40517258 6.98695896 -63.54268633 5.26772642 -59 4 C-59.33 4.99 -59.66 5.98 -60 7 C-44.16 7.33 -28.32 7.66 -12 8 C-12 7.34 -12 6.68 -12 6 C-10.68 6 -9.36 6 -8 6 C-8 5.34 -8 4.68 -8 4 C-4.91190305 2.23537317 -3.76687864 2 0 2 C0 1.34 0 0.68 0 0 Z " fill="#EE2533" transform="translate(72,379)"/>
<path d="M0 0 C4.95 2.31 9.9 4.62 15 7 C15 7.33 15 7.66 15 8 C7.46299247 8.11636152 -0.07392076 8.20495042 -7.61162472 8.25906086 C-11.11258333 8.28504487 -14.61292294 8.32023267 -18.11352539 8.37719727 C-22.14735515 8.44242068 -26.18054494 8.46627254 -30.21484375 8.48828125 C-31.45894516 8.51408768 -32.70304657 8.5398941 -33.98484802 8.56648254 C-41.61339245 8.56892291 -46.77084753 7.51865409 -53 3 C-51.68 2.67 -50.36 2.34 -49 2 C-49 2.66 -49 3.32 -49 4 C-45.58200238 4.7716179 -42.4356185 5.12257266 -38.93432617 5.11352539 C-37.95368698 5.11344986 -36.97304779 5.11337433 -35.96269226 5.11329651 C-34.9166835 5.10813522 -33.87067474 5.10297394 -32.79296875 5.09765625 C-31.17217155 5.09553383 -31.17217155 5.09553383 -29.51863098 5.09336853 C-26.07489224 5.0877808 -22.63121902 5.0752305 -19.1875 5.0625 C-16.84961032 5.05748342 -14.51171961 5.05292079 -12.17382812 5.04882812 C-6.44919647 5.03781538 -0.72460292 5.02108941 5 5 C4.175 4.54625 3.35 4.0925 2.5 3.625 C1.675 3.08875 0.85 2.5525 0 2 C0 1.34 0 0.68 0 0 Z " fill="#E42632" transform="translate(231,121)"/>
<path d="M0 0 C0.99 0 1.98 0 3 0 C3 24.09 3 48.18 3 73 C2.34 73 1.68 73 1 73 C1 49.57 1 26.14 1 2 C0.34 1.67 -0.32 1.34 -1 1 C-0.67 0.67 -0.34 0.34 0 0 Z " fill="#E81526" transform="translate(736,158)"/>
<path d="M0 0 C-1 1 -1 1 -3.36012268 1.12025452 C-4.40603073 1.11803391 -5.45193878 1.11581329 -6.52954102 1.11352539 C-7.71068985 1.11344986 -8.89183868 1.11337433 -10.10877991 1.11329651 C-11.3941716 1.10813522 -12.67956329 1.10297394 -14.00390625 1.09765625 C-15.31205795 1.0962413 -16.62020966 1.09482635 -17.96800232 1.09336853 C-21.45162859 1.0895441 -24.93521339 1.07971446 -28.41882324 1.06866455 C-31.97126708 1.05844882 -35.52371759 1.05387056 -39.07617188 1.04882812 C-46.05079832 1.03809212 -53.02539717 1.0210166 -60 1 C-60 0.34 -60 -0.32 -60 -1 C-52.4725193 -1.17687391 -44.94486568 -1.34283553 -37.41684151 -1.49477577 C-33.921466 -1.56566892 -30.42625641 -1.64035295 -26.93115234 -1.72363281 C-22.91522247 -1.81915787 -18.89911642 -1.89831525 -14.8828125 -1.9765625 C-13.62445587 -2.00875885 -12.36609924 -2.0409552 -11.0696106 -2.0741272 C-9.90855804 -2.09429901 -8.74750549 -2.11447083 -7.55126953 -2.13525391 C-6.52534698 -2.15746002 -5.49942444 -2.17966614 -4.44241333 -2.20254517 C-2 -2 -2 -2 0 0 Z " fill="#FEBFC1" transform="translate(248,130)"/>
<path d="M0 0 C19.47 0 38.94 0 59 0 C59 0.33 59 0.66 59 1 C44.15 1 29.3 1 14 1 C14.33 2.65 14.66 4.3 15 6 C16.98 6.66 18.96 7.32 21 8 C21 8.99 21 9.98 21 11 C16.3970402 9.27502493 12.06744176 7.0904129 7.6875 4.875 C6.94693359 4.50246094 6.20636719 4.12992187 5.44335938 3.74609375 C3.62798783 2.83255194 1.81386718 1.91652513 0 1 C0 0.67 0 0.34 0 0 Z " fill="#DF272E" transform="translate(493,260)"/>
<path d="M0 0 C1.84536598 0.01061211 1.84536598 0.01061211 3.72801208 0.0214386 C7.63050936 0.04927138 11.53153519 0.11199459 15.43359375 0.17578125 C18.09047378 0.20371772 20.74734 0.22368865 23.40429688 0.24414062 C29.89372531 0.29906197 36.38230437 0.38257878 42.87109375 0.48828125 C39.34159943 3.23006276 35.6276907 5.22541546 31.62109375 7.17578125 C30.97140625 7.49611328 30.32171875 7.81644531 29.65234375 8.14648438 C28.06039618 8.93075266 26.46598846 9.7100238 24.87109375 10.48828125 C24.87109375 9.49828125 24.87109375 8.50828125 24.87109375 7.48828125 C27.37109375 5.80078125 27.37109375 5.80078125 29.87109375 4.48828125 C26.78465602 1.40184352 23.07349958 2.12963117 18.92578125 2.07421875 C18.04076935 2.0548526 17.15575745 2.03548645 16.243927 2.01553345 C13.41141459 1.95565402 10.57886172 1.90931912 7.74609375 1.86328125 C5.82810707 1.82510914 3.91013768 1.78605787 1.9921875 1.74609375 C-2.71470373 1.6499457 -7.42167521 1.56594583 -12.12890625 1.48828125 C-12.12890625 2.14828125 -12.12890625 2.80828125 -12.12890625 3.48828125 C-18.75390625 6.61328125 -18.75390625 6.61328125 -22.12890625 5.48828125 C-14.8625191 0.29789962 -8.76046029 -0.19183708 0 0 Z " fill="#F03943" transform="translate(696.12890625,-0.48828125)"/>
<path d="M0 0 C0.66 0.33 1.32 0.66 2 1 C1.67 1.66 1.34 2.32 1 3 C25.75 3.495 25.75 3.495 51 4 C50.67 4.66 50.34 5.32 50 6 C32.84 6 15.68 6 -2 6 C-2 4.35 -2 2.7 -2 1 C-1.34 0.67 -0.68 0.34 0 0 Z " fill="#EE4C51" transform="translate(446,124)"/>
<path d="M0 0 C0.33 0.99 0.66 1.98 1 3 C17.83 3 34.66 3 52 3 C52 3.33 52 3.66 52 4 C33.19 4 14.38 4 -5 4 C-3.35 2.68 -1.7 1.36 0 0 Z " fill="#C92F38" transform="translate(7,385)"/>
<path d="M0 0 C3.8063457 0.67170806 7.35206816 1.72746564 11 3 C11 3.66 11 4.32 11 5 C12.01126953 5.13728516 12.01126953 5.13728516 13.04296875 5.27734375 C16.75097572 6.18352775 19.94828493 7.81283099 23.3125 9.5625 C24.28026367 10.0565332 24.28026367 10.0565332 25.26757812 10.56054688 C26.84785228 11.36824255 28.42432105 12.18337613 30 13 C29.01 13.66 28.02 14.32 27 15 C18.09 10.38 9.18 5.76 0 1 C0 0.67 0 0.34 0 0 Z " fill="#122472" transform="translate(616,279)"/>
<path d="M0 0 C4.36954134 0.55087044 7.68689799 1.61274608 11.58203125 3.65234375 C12.59587891 4.18150391 13.60972656 4.71066406 14.65429688 5.25585938 C16.21760742 6.08827148 16.21760742 6.08827148 17.8125 6.9375 C18.87404297 7.48857422 19.93558594 8.03964844 21.02929688 8.60742188 C28.86725535 12.73451069 28.86725535 12.73451069 30 15 C24.54384122 13.25551386 19.17161029 11.47806327 14 9 C13.67 8.34 13.34 7.68 13 7 C11.34750513 6.29894157 9.67632417 5.64199649 8 5 C5.31308481 3.70630009 2.65528107 2.35729007 0 1 C0 0.67 0 0.34 0 0 Z " fill="#0D1E70" transform="translate(87,93)"/>
<path d="M0 0 C0.66 0.33 1.32 0.66 2 1 C-1.625 4 -1.625 4 -5 4 C-5 4.66 -5 5.32 -5 6 C-7.90600261 7.25664978 -9.79604584 8 -13 8 C-13 8.66 -13 9.32 -13 10 C-13.99 10 -14.98 10 -16 10 C-16.33 11.32 -16.66 12.64 -17 14 C-19.64 14 -22.28 14 -25 14 C-20.46404253 10.43874351 -15.46490953 7.92493901 -10.375 5.25 C-9.40820312 4.73050781 -8.44140625 4.21101563 -7.4453125 3.67578125 C-6.52234375 3.18980469 -5.599375 2.70382812 -4.6484375 2.203125 C-3.80458496 1.75614258 -2.96073242 1.30916016 -2.09130859 0.84863281 C-1.05611084 0.42855957 -1.05611084 0.42855957 0 0 Z " fill="#E53C47" transform="translate(38,369)"/>
<path d="M0 0 C2.97 0 5.94 0 9 0 C9.33 1.65 9.66 3.3 10 5 C11.98 5.66 13.96 6.32 16 7 C16 7.99 16 8.98 16 10 C12.51873079 8.6413032 9.11851499 7.18120256 5.75 5.5625 C4.87859375 5.15128906 4.0071875 4.74007813 3.109375 4.31640625 C1 3 1 3 0 0 Z " fill="#F41920" transform="translate(498,261)"/>
<path d="M0 0 C2.31 0.33 4.62 0.66 7 1 C7 1.66 7 2.32 7 3 C7.763125 3.144375 8.52625 3.28875 9.3125 3.4375 C12 4 12 4 15 5 C15 5.66 15 6.32 15 7 C16.423125 7.2165625 16.423125 7.2165625 17.875 7.4375 C21 8 21 8 23 9 C23 9.99 23 10.98 23 12 C18.45566546 10.28583059 14.15204552 8.16780916 9.8125 6 C9.08869141 5.64421875 8.36488281 5.2884375 7.61914062 4.921875 C2.23962199 2.23962199 2.23962199 2.23962199 0 0 Z " fill="#E72D3C" transform="translate(631,332)"/>
<path d="M0 0 C5.09882455 1.5280389 9.65665659 3.71036856 14.375 6.125 C15.11105469 6.49753906 15.84710938 6.87007813 16.60546875 7.25390625 C18.40550358 8.1656122 20.20301402 9.08229932 22 10 C20.1875 10.625 20.1875 10.625 18 11 C17.01 10.34 16.02 9.68 15 9 C12.37468476 8.83286431 12.37468476 8.83286431 10 9 C10 8.34 10 7.68 10 7 C6.7 5.35 3.4 3.7 0 2 C0 1.34 0 0.68 0 0 Z " fill="#0A196F" transform="translate(138,119)"/>
<path d="M0 0 C0 0.66 0 1.32 0 2 C-6.93 5.465 -6.93 5.465 -14 9 C-14 8.01 -14 7.02 -14 6 C-11.5 4.3125 -11.5 4.3125 -9 3 C-9.66 2.34 -10.32 1.68 -11 1 C-3.375 0 -3.375 0 0 0 Z " fill="#E92635" transform="translate(735,1)"/>
<path d="M0 0 C4.23322844 0.62045463 7.52290295 2.10523559 11.3125 4.0625 C12.38113281 4.61035156 13.44976563 5.15820312 14.55078125 5.72265625 C15.35902344 6.14417969 16.16726563 6.56570313 17 7 C17 7.66 17 8.32 17 9 C10.83643195 7.3341708 5.51740344 4.12194714 0 1 C0 0.67 0 0.34 0 0 Z " fill="#E12E34" transform="translate(672,353)"/>
<path d="M0 0 C0 0.66 0 1.32 0 2 C-0.99 2 -1.98 2 -3 2 C-3 2.99 -3 3.98 -3 5 C-5.64 5.33 -8.28 5.66 -11 6 C-11 6.66 -11 7.32 -11 8 C-13.31 8.33 -15.62 8.66 -18 9 C-14.89241577 6.92827718 -11.71942464 5.15714008 -8.4375 3.375 C-7.28121094 2.74335937 -6.12492188 2.11171875 -4.93359375 1.4609375 C-2 0 -2 0 0 0 Z " fill="#E23540" transform="translate(565,63)"/>
<path d="M0 0 C1.32 0 2.64 0 4 0 C4 0.66 4 1.32 4 2 C4.66 2.0825 5.32 2.165 6 2.25 C9.99039163 3.24759791 13.38549643 5.07166683 17 7 C17 7.66 17 8.32 17 9 C10.83643195 7.3341708 5.51740344 4.12194714 0 1 C0 0.67 0 0.34 0 0 Z " fill="#E7323D" transform="translate(714,375)"/>
<path d="M0 0 C7.92 3.96 7.92 3.96 16 8 C15.34 8.66 14.68 9.32 14 10 C12.03465459 9.09846541 10.07789375 8.17819891 8.125 7.25 C6.48917969 6.48429687 6.48917969 6.48429687 4.8203125 5.703125 C2 4 2 4 0 0 Z " fill="#14236F" transform="translate(534,327)"/>
<path d="M0 0 C0.66 0.33 1.32 0.66 2 1 C1.01115296 3.56781248 0.44413411 4.76249971 -2.0234375 6.08203125 C-2.79945313 6.32308594 -3.57546875 6.56414062 -4.375 6.8125 C-5.14585937 7.06644531 -5.91671875 7.32039063 -6.7109375 7.58203125 C-9.17344686 8.03167033 -10.64915604 7.78898188 -13 7 C-10.88002166 5.80266012 -8.75486324 4.61701287 -6.625 3.4375 C-6.02171875 3.09525391 -5.4184375 2.75300781 -4.796875 2.40039062 C-3.23021759 1.53872905 -1.61709138 0.76281817 0 0 Z " fill="#EA2939" transform="translate(209,279)"/>
<path d="M0 0 C1.32 0.33 2.64 0.66 4 1 C-3.92 4.96 -3.92 4.96 -12 9 C-12 8.01 -12 7.02 -12 6 C-10.68 6 -9.36 6 -8 6 C-8 5.34 -8 4.68 -8 4 C-4.91190305 2.23537317 -3.76687864 2 0 2 C0 1.34 0 0.68 0 0 Z " fill="#E3323D" transform="translate(72,379)"/>
<path d="M0 0 C0 0.66 0 1.32 0 2 C-1.65532623 3.01866229 -3.32260138 4.01810813 -5 5 C-5.33 5.66 -5.66 6.32 -6 7 C-8.06640625 7.4140625 -8.06640625 7.4140625 -10.5625 7.625 C-11.38878906 7.69976562 -12.21507813 7.77453125 -13.06640625 7.8515625 C-14.02353516 7.92503906 -14.02353516 7.92503906 -15 8 C-12.23612808 5.84821844 -9.43466931 4.01629579 -6.375 2.3125 C-5.59898438 1.87550781 -4.82296875 1.43851562 -4.0234375 0.98828125 C-2 0 -2 0 0 0 Z " fill="#E52838" transform="translate(112,331)"/>
<path d="M0 0 C-0.25 1.875 -0.25 1.875 -1 4 C-2.9375 5.1875 -2.9375 5.1875 -5 6 C-5.99 6.495 -5.99 6.495 -7 7 C-9.125 6.0625 -9.125 6.0625 -11 5 C-9.54462432 4.16151196 -8.08559627 3.32936066 -6.625 2.5 C-5.81289063 2.0359375 -5.00078125 1.571875 -4.1640625 1.09375 C-2 0 -2 0 0 0 Z " fill="#E92A36" transform="translate(515,89)"/>
<path d="M0 0 C0 0.99 0 1.98 0 3 C-4.42778844 5.74522883 -7.71862571 7.48474397 -13 8 C-10.59310197 5.27324841 -8.07528977 3.88033404 -4.8125 2.3125 C-3.91144531 1.87550781 -3.01039062 1.43851562 -2.08203125 0.98828125 C-1.39496094 0.66214844 -0.70789063 0.33601563 0 0 Z " fill="#0F1E70" transform="translate(128,368)"/>
<path d="M0 0 C5.47932789 1.54545146 10.11429181 4.15543212 15 7 C11.28125 8.1171875 11.28125 8.1171875 8.75 7.0625 C8.1725 6.711875 7.595 6.36125 7 6 C7 5.34 7 4.68 7 4 C4.69 3.67 2.38 3.34 0 3 C0 2.01 0 1.02 0 0 Z " fill="#11226E" transform="translate(510,315)"/>
<path d="M0 0 C3.37462715 0.54723683 5.08235 1.0549 8 3 C8 3.66 8 4.32 8 5 C9.4540625 5.433125 9.4540625 5.433125 10.9375 5.875 C14 7 14 7 15 9 C9.52067211 7.45454854 4.88570819 4.84456788 0 2 C0 1.34 0 0.68 0 0 Z " fill="#13216E" transform="translate(594,266)"/>
<path d="M0 0 C1.32 0.33 2.64 0.66 4 1 C1.87767021 2.17176518 -0.24757791 3.33754785 -2.375 4.5 C-2.97828125 4.83386719 -3.5815625 5.16773438 -4.203125 5.51171875 C-8.7734375 8 -8.7734375 8 -11 8 C-11 7.34 -11 6.68 -11 6 C-9.73308493 5.32591692 -8.46129251 4.66099503 -7.1875 4 C-6.47980469 3.62875 -5.77210938 3.2575 -5.04296875 2.875 C-3 2 -3 2 0 2 C0 1.34 0 0.68 0 0 Z " fill="#E23340" transform="translate(676,31)"/>
<path d="M0 0 C-2.12232979 1.17176518 -4.24757791 2.33754785 -6.375 3.5 C-6.97828125 3.83386719 -7.5815625 4.16773438 -8.203125 4.51171875 C-12.7734375 7 -12.7734375 7 -15 7 C-15 6.34 -15 5.68 -15 5 C-12.35261084 3.5393715 -11.10551666 3 -8 3 C-8 2.34 -8 1.68 -8 1 C-4.85571151 -0.9090323 -3.47925125 -1.04523725 0 0 Z " fill="#E52E38" transform="translate(99,368)"/>
<path d="M0 0 C-0.66 1.65 -1.32 3.3 -2 5 C-5.3 5.33 -8.6 5.66 -12 6 C-4 0 -4 0 0 0 Z " fill="#E7292E" transform="translate(67,355)"/>
<path d="M0 0 C1.65 0 3.3 0 5 0 C2.23612808 2.15178156 -0.56533069 3.98370421 -3.625 5.6875 C-4.40101563 6.12449219 -5.17703125 6.56148438 -5.9765625 7.01171875 C-8 8 -8 8 -10 8 C-9 5 -9 5 -6.125 3.3125 C-3 2 -3 2 0 2 C0 1.34 0 0.68 0 0 Z " fill="#E72936" transform="translate(267,277)"/>
<path d="M0 0 C-1.41519715 2.0343459 -2.54982123 2.90410393 -4.98046875 3.421875 C-6.98176954 3.66273952 -8.9909944 3.83532741 -11 4 C-11 4.66 -11 5.32 -11 6 C-11.66 6 -12.32 6 -13 6 C-12 3 -12 3 -10.29296875 1.796875 C-9.59816406 1.45140625 -8.90335938 1.1059375 -8.1875 0.75 C-7.50042969 0.39421875 -6.81335938 0.0384375 -6.10546875 -0.328125 C-3.64922558 -1.11193544 -2.39957614 -0.84119973 0 0 Z " fill="#102476" transform="translate(689,75)"/>
<path d="M0 0 C5.34844008 0.53484401 9.35796103 2.46690767 14 5 C13.67 5.66 13.34 6.32 13 7 C8.50202887 5.31326082 4.27113698 3.18326108 0 1 C0 0.67 0 0.34 0 0 Z " fill="#142675" transform="translate(87,93)"/>
<path d="M0 0 C0 0.66 0 1.32 0 2 C-0.99 2 -1.98 2 -3 2 C-3.33 3.32 -3.66 4.64 -4 6 C-6.64 6 -9.28 6 -12 6 C-8.59780735 3.25207517 -4.51535412 0 0 0 Z " fill="#E62933" transform="translate(25,377)"/>
<path d="M0 0 C1.98 0 3.96 0 6 0 C6.33 0.66 6.66 1.32 7 2 C8.65 2 10.3 2 12 2 C12 3.32 12 4.64 12 6 C7.76570244 4.68938409 3.92592596 3.05643741 0 1 C0 0.67 0 0.34 0 0 Z " fill="#0B1B6D" transform="translate(580,260)"/>
<path d="M0 0 C0.99 0.66 1.98 1.32 3 2 C2.01 2.33 1.02 2.66 0 3 C0 3.66 0 4.32 0 5 C-2.64 5 -5.28 5 -8 5 C-5.44008376 2.98863724 -2.95409701 1.37154504 0 0 Z " fill="#192A7B" transform="translate(641,97)"/>
<path d="M0 0 C-3.66002197 3.05001831 -9.07851471 7 -14 7 C-14 6.34 -14 5.68 -14 5 C-12.35 4.67 -10.7 4.34 -9 4 C-9 3.34 -9 2.68 -9 2 C-5.86501708 0.14223235 -3.62528568 -0.20140476 0 0 Z " fill="#E52A38" transform="translate(639,53)"/>
<path d="M0 0 C5.34844008 0.53484401 9.35796103 2.46690767 14 5 C10.22134307 6.25955231 8.96588214 5.48087189 5.3125 4.0625 C4.31863281 3.68222656 3.32476563 3.30195313 2.30078125 2.91015625 C1.54152344 2.60980469 0.78226563 2.30945313 0 2 C0 1.34 0 0.68 0 0 Z " fill="#121E73" transform="translate(576,351)"/>
<path d="M0 0 C3.8063457 0.67170806 7.35206816 1.72746564 11 3 C11 3.99 11 4.98 11 6 C7.2089881 4.55049545 3.6125362 2.84827434 0 1 C0 0.67 0 0.34 0 0 Z " fill="#E62C39" transform="translate(503,265)"/>
<path d="M0 0 C5.75 1.875 5.75 1.875 8 3 C8 3.66 8 4.32 8 5 C8.66 5 9.32 5 10 5 C9.67 5.66 9.34 6.32 9 7 C5.7 5.35 2.4 3.7 -1 2 C-0.67 1.34 -0.34 0.68 0 0 Z " fill="#1F2B7B" transform="translate(655,298)"/>
<path d="M0 0 C-1.45537568 0.83848804 -2.91440373 1.67063934 -4.375 2.5 C-5.59316406 3.19609375 -5.59316406 3.19609375 -6.8359375 3.90625 C-9 5 -9 5 -11 5 C-10.67 4.01 -10.34 3.02 -10 2 C-9.34 2 -8.68 2 -8 2 C-8 1.34 -8 0.68 -8 0 C-4.90645403 -0.99435406 -3.09720845 -0.87840996 0 0 Z " fill="#E52635" transform="translate(241,294)"/>
<path d="M0 0 C0.33 0 0.66 0 1 0 C1 3.63 1 7.26 1 11 C0.01 11.495 0.01 11.495 -1 12 C-3.625 10.5625 -3.625 10.5625 -6 9 C-2.25 7.875 -2.25 7.875 0 9 C0 6.03 0 3.06 0 0 Z " fill="#182A7E" transform="translate(293,97)"/>
<path d="M0 0 C1.65 0 3.3 0 5 0 C5 0.66 5 1.32 5 2 C7.97 2.495 7.97 2.495 11 3 C11.33 3.99 11.66 4.98 12 6 C7.76570244 4.68938409 3.92592596 3.05643741 0 1 C0 0.67 0 0.34 0 0 Z " fill="#E72C3B" transform="translate(124,95)"/>
<path d="M0 0 C4.56454251 0.54339792 7.9728176 1.79463821 12 4 C11.34 4.66 10.68 5.32 10 6 C6.7 4.35 3.4 2.7 0 1 C0 0.67 0 0.34 0 0 Z " fill="#142577" transform="translate(49,73)"/>
<path d="M0 0 C7.57142857 1.85714286 7.57142857 1.85714286 10 5 C7 6 7 6 5.17578125 5.22265625 C3.45052083 4.1484375 1.72526042 3.07421875 0 2 C0 1.34 0 0.68 0 0 Z " fill="#192880" transform="translate(92,1)"/>
<path d="M0 0 C1.31571603 0.2547514 2.62760376 0.52934141 3.9375 0.8125 C4.66839844 0.96332031 5.39929688 1.11414063 6.15234375 1.26953125 C6.76207031 1.51058594 7.37179687 1.75164062 8 2 C8.33 2.99 8.66 3.98 9 5 C8.01 5.495 8.01 5.495 7 6 C4.5249829 4.88568235 2.32116581 3.41849022 0 2 C0 1.34 0 0.68 0 0 Z " fill="#19297E" transform="translate(714,329)"/>
<path d="M0 0 C0 0.66 0 1.32 0 2 C-0.99 2 -1.98 2 -3 2 C-3 2.66 -3 3.32 -3 4 C-3.99 4 -4.98 4 -6 4 C-6 4.66 -6 5.32 -6 6 C-7.65 6 -9.3 6 -11 6 C-8.24029211 2.78034079 -4.3526723 0 0 0 Z " fill="#E2363F" transform="translate(139,317)"/>
<path d="M0 0 C1.32 0.33 2.64 0.66 4 1 C2.56988027 1.86646667 1.13059381 2.71781829 -0.3125 3.5625 C-1.51326172 4.27599609 -1.51326172 4.27599609 -2.73828125 5.00390625 C-5 6 -5 6 -8 5 C-4.93882432 2.37613513 -4.26826873 2 0 2 C0 1.34 0 0.68 0 0 Z " fill="#E2303B" transform="translate(206,309)"/>
<path d="M0 0 C3.3 1.65 6.6 3.3 10 5 C10 5.33 10 5.66 10 6 C7.03 5.67 4.06 5.34 1 5 C0.67 3.35 0.34 1.7 0 0 Z " fill="#E6222A" transform="translate(599,285)"/>
<path d="M0 0 C-5.445 2.475 -5.445 2.475 -11 5 C-9 1 -9 1 -6.625 -0.3125 C-4 -1 -4 -1 0 0 Z " fill="#E12231" transform="translate(291,268)"/>
<path d="M0 0 C0 0.66 0 1.32 0 2 C-6.625 6 -6.625 6 -10 6 C-10 5.34 -10 4.68 -10 4 C-8.71086513 3.32845067 -7.41859796 2.66291141 -6.125 2 C-5.40570312 1.62875 -4.68640625 1.2575 -3.9453125 0.875 C-2 0 -2 0 0 0 Z " fill="#121D75" transform="translate(632,103)"/>
<path d="M0 0 C2.31 0.33 4.62 0.66 7 1 C7 1.66 7 2.32 7 3 C8.65 3.33 10.3 3.66 12 4 C12 4.66 12 5.32 12 6 C7.76570244 4.68938409 3.92592596 3.05643741 0 1 C0 0.67 0 0.34 0 0 Z " fill="#E52E38" transform="translate(103,84)"/>
<path d="M0 0 C3.63 1.65 7.26 3.3 11 5 C7.59068103 6.13643966 6.99664544 5.86747764 3.8125 4.5625 C3.09707031 4.27503906 2.38164063 3.98757813 1.64453125 3.69140625 C1.10183594 3.46324219 0.55914063 3.23507812 0 3 C0 2.01 0 1.02 0 0 Z " fill="#E62535" transform="translate(648,311)"/>
<path d="M0 0 C0 0.66 0 1.32 0 2 C-7.28571429 6.57142857 -7.28571429 6.57142857 -12 6 C-8.59780735 3.25207517 -4.51535412 0 0 0 Z " fill="#E53740" transform="translate(246,261)"/>
<path d="M0 0 C4.12751449 0.60698743 7.3321148 2.03810791 11 4 C9.1875 4.625 9.1875 4.625 7 5 C6.01 4.34 5.02 3.68 4 3 C1.37468476 2.83286431 1.37468476 2.83286431 -1 3 C-0.67 2.01 -0.34 1.02 0 0 Z " fill="#122273" transform="translate(149,125)"/>
<path d="M0 0 C0 0.66 0 1.32 0 2 C-2.25 4.1875 -2.25 4.1875 -5 6 C-7.3125 5.75 -7.3125 5.75 -9 5 C-2.87096774 0 -2.87096774 0 0 0 Z " fill="#FDD9DC" transform="translate(595,77)"/>
<path d="M0 0 C4.50802601 1.25805377 7.4912812 2.90407165 11 6 C5.25 5.125 5.25 5.125 3 4 C3 3.34 3 2.68 3 2 C2.01 2 1.02 2 0 2 C0 1.34 0 0.68 0 0 Z " fill="#E42C37" transform="translate(617,295)"/>
<path d="M0 0 C1.65 0 3.3 0 5 0 C5 0.66 5 1.32 5 2 C5.928125 2.1546875 5.928125 2.1546875 6.875 2.3125 C9 3 9 3 11 6 C6.49197399 4.74194623 3.5087188 3.09592835 0 0 Z " fill="#E1333F" transform="translate(155,111)"/>
<path d="M0 0 C0.33 0.99 0.66 1.98 1 3 C3.31 3 5.62 3 8 3 C8 3.33 8 3.66 8 4 C3.71 4 -0.58 4 -5 4 C-3.35 2.68 -1.7 1.36 0 0 Z " fill="#CF383F" transform="translate(7,385)"/>
<path d="M0 0 C0.66 0.33 1.32 0.66 2 1 C1.34 1.66 0.68 2.32 0 3 C-0.99 3 -1.98 3 -3 3 C-3.33 3.99 -3.66 4.98 -4 6 C-5.65 6 -7.3 6 -9 6 C-6.45368965 3.02930459 -3.57769851 1.5224249 0 0 Z " fill="#FCDBD9" transform="translate(584,82)"/>
<path d="M0 0 C1.4589426 0.47730838 2.91713496 0.95691042 4.375 1.4375 C5.18710938 1.70433594 5.99921875 1.97117188 6.8359375 2.24609375 C9 3 9 3 11 4 C11 4.66 11 5.32 11 6 C6.95743617 4.77782954 3.50711041 3.37245704 0 1 C0 0.67 0 0.34 0 0 Z " fill="#0E1C6B" transform="translate(170,43)"/>
<path d="M0 0 C0.99 0.33 1.98 0.66 3 1 C3 1.66 3 2.32 3 3 C5.97 3.495 5.97 3.495 9 4 C8.01 4.66 7.02 5.32 6 6 C2.535 4.02 2.535 4.02 -1 2 C-0.67 1.34 -0.34 0.68 0 0 Z " fill="#EA3242" transform="translate(529,277)"/>
<path d="M0 0 C6.625 0.75 6.625 0.75 10 3 C10 3.66 10 4.32 10 5 C6.08788267 3.84414715 3.1254959 2.64465038 0 0 Z " fill="#E6303B" transform="translate(38,50)"/>
<path d="M0 0 C5.53846154 0.61538462 5.53846154 0.61538462 7.875 2.5625 C8.431875 3.2740625 8.431875 3.2740625 9 4 C8.01 4.495 8.01 4.495 7 5 C4.5249829 3.88568235 2.32116581 2.41849022 0 1 C0 0.67 0 0.34 0 0 Z " fill="#E4343A" transform="translate(622,327)"/>
<path d="M0 0 C3.8063457 0.67170806 7.35206816 1.72746564 11 3 C10.01 3.66 9.02 4.32 8 5 C5.36 3.68 2.72 2.36 0 1 C0 0.67 0 0.34 0 0 Z " fill="#1C2D77" transform="translate(616,279)"/>
<path d="M0 0 C2.31 0.33 4.62 0.66 7 1 C7.33 2.32 7.66 3.64 8 5 C5.36 3.68 2.72 2.36 0 1 C0 0.67 0 0.34 0 0 Z " fill="#1C2A76" transform="translate(217,68)"/>
<path d="M0 0 C4.10801767 1.18676066 5.89448334 1.89448334 9 5 C4.545 4.01 4.545 4.01 0 3 C0 2.01 0 1.02 0 0 Z " fill="#E32C37" transform="translate(66,35)"/>
<path d="M0 0 C-0.33 0.99 -0.66 1.98 -1 3 C-1.66 3 -2.32 3 -3 3 C-3.33 3.99 -3.66 4.98 -4 6 C-4.99 6.33 -5.98 6.66 -7 7 C-7 6.01 -7 5.02 -7 4 C-6.01 4 -5.02 4 -4 4 C-4 3.01 -4 2.02 -4 1 C-2 0 -2 0 0 0 Z " fill="#ED212F" transform="translate(649,19)"/>
<path d="M0 0 C3.82097239 0.53069061 6.06171403 1.49701566 9 4 C8.01 4.495 8.01 4.495 7 5 C4.5249829 3.88568235 2.32116581 2.41849022 0 1 C0 0.67 0 0.34 0 0 Z " fill="#E83743" transform="translate(672,353)"/>
<path d="M0 0 C-0.33 0.99 -0.66 1.98 -1 3 C-3.31 3.33 -5.62 3.66 -8 4 C-3.375 0 -3.375 0 0 0 Z " fill="#EB2E3B" transform="translate(128,323)"/>
<path d="M0 0 C2.875 -0.125 2.875 -0.125 6 0 C8 2 8 2 8 4 C2.25 2.25 2.25 2.25 0 0 Z " fill="#FCD6D7" transform="translate(647,310)"/>
<path d="M0 0 C-1.75 3.875 -1.75 3.875 -4 5 C-4.99 4.34 -5.98 3.68 -7 3 C-2.25 0 -2.25 0 0 0 Z " fill="#FCDDE0" transform="translate(220,305)"/>
<path d="M0 0 C-2.62198774 2.15377564 -4.64404172 3.40072174 -8 4 C-8 3.01 -8 2.02 -8 1 C-5.07175348 0.02391783 -3.04386724 -0.08226668 0 0 Z " fill="#E63136" transform="translate(257,285)"/>
<path d="M0 0 C1.32 0 2.64 0 4 0 C4 0.66 4 1.32 4 2 C5.65 2.33 7.3 2.66 9 3 C9 3.66 9 4.32 9 5 C5.22454612 3.90931332 2.52956528 3.0916909 0 0 Z " fill="#EA3644" transform="translate(178,123)"/>
<path d="M0 0 C0.33 0.99 0.66 1.98 1 3 C-1.35438733 4.42944945 -2.48032433 5.08661261 -5.25 4.625 C-5.8275 4.41875 -6.405 4.2125 -7 4 C-4.69 2.68 -2.38 1.36 0 0 Z " fill="#E7333F" transform="translate(534,78)"/>
<path d="M0 0 C3.3 0.99 6.6 1.98 10 3 C9.67 3.66 9.34 4.32 9 5 C4.89198233 3.81323934 3.10551666 3.10551666 0 0 Z " fill="#0D196B" transform="translate(225,72)"/>
<path d="M0 0 C2.16874252 0.50603992 3.99967627 0.99983813 6 2 C5.67 2.99 5.34 3.98 5 5 C3.02 4.01 1.04 3.02 -1 2 C-0.67 1.34 -0.34 0.68 0 0 Z " fill="#203080" transform="translate(200,58)"/>
<path d="M0 0 C0 0.66 0 1.32 0 2 C-0.99 2 -1.98 2 -3 2 C-3.33 2.99 -3.66 3.98 -4 5 C-5.65 5 -7.3 5 -9 5 C-2.87096774 0 -2.87096774 0 0 0 Z " fill="#FCD9DA" transform="translate(731,5)"/>
</svg>
